<svg xmlns="http://www.w3.org/2000/svg" width="130" height="110"><g style="font-size:32.81921768px;font-style:normal;font-variant:normal;font-weight:600;font-stretch:normal;line-height:125%;letter-spacing:0;word-spacing:0;fill:#fff;fill-opacity:1;stroke:none;font-family:Droid Sans Hebrew;-inkscape-font-specification:Droid Sans Hebrew Semi-Bold"><path d="M-12750.037 1075.574v-10.961c1.862-.924 3.764-1.248 5.769 0v1.795c0 .972 0 2.195-.02 3.67-.01 1.463-.02 2.44-.02 2.932 0 1.442.04 2.484.113 3.125.07.63.203 1.09.384 1.378.235.374.54.662.914.865.384.203.822.305 1.314.305 1.196 0 2.136-.46 2.82-1.378.684-.919 1.026-2.196 1.026-3.83v-8.862c2.992 2.134 4.067.48 5.737 0v17.948c-1.912-1.122-3.825-1.193-5.737 0v-2.596c-.866 1.047-1.785 1.821-2.757 2.324-.961.491-2.024.737-3.189.737-2.072 0-3.653-.636-4.743-1.907-1.079-1.272-1.619-3.12-1.619-5.545M-12718.403 1074.484c-1.197 0-2.1.203-2.708.61-.599.405-.898 1.004-.898 1.794 0 .727.241 1.298.721 1.715.492.406 1.17.609 2.035.609 1.079 0 1.988-.385 2.725-1.154.737-.78 1.105-1.752 1.105-2.917v-.657h-2.98m8.765-2.163v10.24c-1.928 1.31-3.857 1.2-5.785 0v-2.66c-.769 1.09-1.634 1.885-2.596 2.388-.961.491-2.131.737-3.509.737-1.859 0-3.371-.54-4.535-1.619-1.154-1.09-1.731-2.5-1.731-4.23 0-2.105.721-3.649 2.164-4.632 1.452-.983 3.728-1.474 6.826-1.474h3.381v-.449c0-.908-.357-1.57-1.073-1.987-.716-.427-1.832-.64-3.349-.64-1.229 0-2.372.122-3.43.368-1.057.246-2.04.614-2.948 1.106.32-1.23 1.892-1.564 0-4.375 1.228-.3 2.462-.524 3.701-.673 1.24-.16 2.479-.24 3.718-.24 3.237 0 5.572.64 7.003 1.922 1.442 1.272 2.163 3.344 2.163 6.218M-12704.269 1064.613h5.737v17.948c-2.81.834-2.966-1.702-5.737 0v-17.948m0-6.987c1.743.364 3.191 1.365 5.737 0 1.729 2.382 1.103 3.607 0 4.68-2.263 1.397-4.042.867-5.737 0 .617-1.313 1.958-2.337 0-4.68M-12695.584 1058.636c8.071 1.916 15.189 1.3 22.051 0 .572 1.554.954 3.109 0 4.663-3.497 1.759-5.844 1.146-7.933 0v19.262c-2.574-1.574-4.392-.848-6.169 0v-19.262c-3.911 2.156-5.509.358-7.949 0 .554-1.168.538-2.734 0-4.663" style="fill:#fff;fill-opacity:1" transform="matrix(.7999 0 0 .99489 10206.587 -973.293)"/><path d="M-12674.399 1075.574v-10.961c1.717-.784 3.455-1.484 5.769 0v1.795c0 .972 0 2.195-.02 3.67-.01 1.463-.02 2.44-.02 2.932 0 1.442.04 2.484.113 3.125.07.63.203 1.09.384 1.378.235.374.54.662.914.865.384.203.822.305 1.314.305 1.196 0 2.136-.46 2.82-1.378.684-.919 1.026-2.196 1.026-3.83v-8.862c2.925 1.828 4.412 1.06 5.737 0v17.948c-2.144-2.64-3.998-1.97-5.737 0v-2.596c-.866 1.047-1.784 1.821-2.757 2.324-.961.491-2.024.737-3.189.737-2.072 0-3.653-.636-4.743-1.907-1.079-1.272-1.619-3.12-1.619-5.545M-12641.259 1078.86c1.229 0 2.164-.45 2.805-1.347.651-.897.977-2.2.977-3.91s-.326-3.013-.977-3.91c-.641-.897-1.576-1.346-2.805-1.346-1.228 0-2.174.454-2.836 1.362-.652.897-.978 2.195-.978 3.894 0 1.699.326 3.002.978 3.91.662.898 1.608 1.346 2.836 1.346m-3.814-11.618c.791-1.047 1.667-1.816 2.628-2.307.962-.503 2.068-.754 3.318-.754 2.211 0 4.027.882 5.448 2.645 1.421 1.752 2.131 4.011 2.131 6.778 0 2.767-.71 5.032-2.131 6.795-1.421 1.752-3.237 2.628-5.448 2.628-1.25 0-2.356-.246-3.318-.737-.961-.502-1.837-1.277-2.628-2.324v2.596c-1.594-1.09-3.338-1.663-5.737 0v-24.935c1.696 1.26 3.442 2.231 5.737 0v9.615M-12609.369 1073.539v1.635c-2.225-2.667-8.073-1.032-13.413 0 .139 1.346.625 2.355 1.458 3.028.834.673 1.998 1.01 3.494 1.01 1.207 0 2.441-.176 3.702-.529 1.271-.363 2.574-.908 3.91-1.635-1.311 1.348-2.657 2.631 0 4.423a24.236 24.236 0 0 1-4.071 1.154c-1.357.267-2.713.4-4.07.4-3.248 0-5.774-.822-7.58-2.467-1.795-1.656-2.692-3.974-2.692-6.955 0-2.927.881-5.23 2.644-6.907 1.773-1.677 4.209-2.516 7.307-2.516 2.821 0 5.075.85 6.763 2.548 1.699 1.699 2.548 3.97 2.548 6.811m-5.897-1.907c0-1.09-.321-1.966-.962-2.628-.63-.673-1.458-1.01-2.484-1.01-1.111 0-2.013.315-2.708.946-.694.62-1.127 1.517-1.298 2.692h7.452" style="fill:#fff;fill-opacity:1" transform="matrix(.7999 0 0 .99489 10206.587 -973.293)"/></g><path d="M-11043.395 1202.467c8.021 1.677 16.085 3.64 27.029-1.56 0 0-1.224-6.62-2.975-5.438-2.345.407-9.332-5.223-9.701-8.6-.254-2.323-13.138 16.293-14.353 15.598z" style="fill:#4d4d4d;fill-opacity:1;stroke:none" transform="matrix(.98395 0 0 .97531 10945.467 -1101.722)"/><path d="M-11017.792 1166.282c0-.01 24.853 16.33 4.22 41.76-2.374 2.926-.156-14.307-7.746-13.8-6.278.419-8.147-8.22-8.147-8.22z" style="fill:#4d4d4d;fill-opacity:1;stroke:none" transform="matrix(.98395 0 0 .97531 10945.467 -1101.722)"/><path d="M-11014.287 1208.427c0-.055.03-.106.08-.183.04-.077.07-.197.217-.351l.649-.905c.522-.733 1.21-1.74 1.985-3.032 1.431-2.395 3.142-5.732 4.081-9.805.552-2.395.791-5.06.538-7.782a22.05 22.05 0 0 0-1.06-5.033c-.811-2.464-1.998-4.612-3.247-6.46-1.25-1.847-2.561-3.395-3.698-4.66-1.136-1.266-2.1-2.25-2.738-2.962-.638-.711-.953-1.153-.846-1.296.107-.143.628.024 1.481.497.853.473 2.041 1.255 3.414 2.39a29.795 29.795 0 0 1 4.431 4.535c1.498 1.905 2.932 4.226 3.962 6.983a23.042 23.042 0 0 1 1.285 5.726 24.532 24.532 0 0 1-.783 8.76 27.904 27.904 0 0 1-5.293 10.19c-1.009 1.224-1.966 2.138-2.729 2.716-.394.3-.753.52-1.037.643-.143.076-.353.145-.487.141-.134 0-.196-.058-.2-.112z" style="fill:#fff;fill-opacity:1;fill-rule:evenodd;stroke:none" transform="matrix(.98395 0 0 .97531 10945.467 -1101.722)"/><path d="M-11014.3 1208.411c-.02 0-.04 0-.06-.01-.02-.01-.04-.017-.06-.03a.638.638 0 0 1-.125-.129 2.675 2.675 0 0 1-.263-.494c-.176-.414-.367-1.011-.578-1.76-.373-1.322-.796-3.114-1.386-5.154-.449-1.5-.861-3.11-1.708-4.391-.291-.368-.46-.667-.577-.65.06-.011.07 0 .05.012a.343.343 0 0 1-.105.044 3.91 3.91 0 0 1-2.643.456 5.34 5.34 0 0 1-2.247-1.068c-1.587-1.257-2.565-2.734-3.294-4.004-1.742-3.72-2.623-6.24-2.18-6.482.463-.205 2.125 1.887 4.262 5.205.851 1.06 1.753 2.213 2.904 2.956.406.252.768.463 1.065.48a.915.915 0 0 0 .609-.124 2.895 2.895 0 0 1 1.332-.428 3.444 3.444 0 0 1 1.519.25c.95.522 1.519 1.207 1.824 1.815 1.089 1.89 1.47 3.773 1.727 5.35.388 2.227.487 4.129.464 5.529-.01.795-.07 1.432-.157 1.88-.05.233-.1.415-.162.542a.442.442 0 0 1-.1.149.267.267 0 0 1-.06.041.155.155 0 0 1-.06.019z" style="fill:#fff;fill-opacity:1;fill-rule:evenodd;stroke:none" transform="matrix(.98395 0 0 .97531 10945.467 -1101.722)"/><path d="M-11043.476 1202.56c0-.028.02-.055.03-.08l.06-.069a.72.72 0 0 1 .209-.116c.175-.068.42-.119.729-.155.609-.072 1.464-.09 2.518-.071 2.019.033 4.753.196 7.841.281.95.025 1.931.045 2.929.049 2.174.01 4.197-.078 5.988-.27a43.391 43.391 0 0 0 3.082-.473 21.55 21.55 0 0 0 2.306-.592c.634-.201 1.137-.392 1.518-.5.381-.108.642-.13.76 0 .118.127.08.397-.137.773-.217.376-.617.856-1.221 1.355-.603.5-1.412 1.015-2.397 1.462a16.54 16.54 0 0 1-3.386 1.084c-1.956.44-4.191.673-6.524.667a38.02 38.02 0 0 1-3.104-.134c-3.242-.26-6.037-.851-8.016-1.464-1.033-.32-1.849-.647-2.396-.946a2.863 2.863 0 0 1-.623-.43.671.671 0 0 1-.146-.193l-.03-.089v-.086z" style="fill:#fff;fill-opacity:1;fill-rule:evenodd;stroke:none" transform="matrix(.98395 0 0 .97531 10945.467 -1101.722)"/><path d="M-11108.942 1199.435c23.619-6.13 45.052-3.928 62.011 8.018 85.52-92.55-50.223-78.297-62.011-8.018z" style="fill:#8fc357;fill-opacity:1;stroke:none" transform="matrix(.98395 0 0 .97531 10945.467 -1101.722)"/><path d="M-11109.128 1199.63c-.04-.129.755-.555 2.277-1.13 1.522-.576 3.772-1.292 6.623-1.912 2.851-.62 6.306-1.137 10.178-1.352 3.871-.215 8.157-.124 12.602.363l.461.05c4.5.513 8.771 1.413 12.541 2.56 3.77 1.148 7.039 2.54 9.666 3.91 2.627 1.37 4.618 2.71 5.932 3.717 1.313 1.005 1.958 1.666 1.876 1.777-.08.11-.88-.336-2.303-1.129-1.423-.793-3.478-1.922-6.118-3.096a68.157 68.157 0 0 0-9.567-3.405c-3.698-1.017-7.863-1.836-12.256-2.345l-.45-.051a90.669 90.669 0 0 0-12.307-.515 81.959 81.959 0 0 0-9.999.896c-2.826.43-5.089.928-6.66 1.27-1.57.343-2.452.522-2.496.393z" style="fill:#fff;fill-opacity:1;fill-rule:evenodd;stroke:none" transform="matrix(.98395 0 0 .97531 10945.467 -1101.722)"/><g style="fill:#fff;stroke:#fff;stroke-width:16.66597557;stroke-linejoin:bevel;stroke-miterlimit:4;stroke-opacity:1;stroke-dasharray:none"><path d="M-9484.818 1095.61c0 12.525-10.154 22.68-22.68 22.68-12.524 0-22.678-10.155-22.678-22.68s10.154-22.679 22.679-22.679c12.525 0 22.679 10.154 22.679 22.68z" style="fill:#4d4d4d;fill-opacity:1;stroke:#fff;stroke-width:8.39218998;stroke-linejoin:bevel;stroke-miterlimit:4;stroke-opacity:1;stroke-dasharray:none" transform="matrix(.37308 0 0 .3698 3622.654 -370.959)"/></g><path d="M-11059.592 882.7c0 .502-.882.909-1.97.909-1.087 0-1.969-.407-1.969-.909s.882-.909 1.969-.909c1.088 0 1.97.407 1.97.909z" style="fill:#b6b663;fill-opacity:1;stroke:#fff;stroke-width:2.46000004;stroke-linejoin:bevel;stroke-miterlimit:4;stroke-opacity:1;stroke-dasharray:none" transform="matrix(.72068 0 0 .85411 8047.041 -724.079)"/><path d="M-11109.28 915.225c-.244-.06-.318-.82-.186-2.217.133-1.396.475-3.429 1.137-5.994a67.262 67.262 0 0 1 3.105-9.148 74.603 74.603 0 0 1 5.966-11.364 77.6 77.6 0 0 1 7.882-10.287 79.127 79.127 0 0 1 10.808-9.887c6.194-4.695 13.555-8.835 21.868-11.585 4.815-1.607 10.017-2.75 15.431-3.031a48.063 48.063 0 0 1 5.676.036c5.913.33 11.971 2.174 16.72 6.07a19.51 19.51 0 0 1 5.152 6.79c1.305 2.933 1.841 5.993 1.831 8.907-.05 4.52-1.055 8.653-2.467 12.383-1.413 3.73-3.234 7.06-5.077 10.007-3.035 4.942-6.234 9.095-9.232 12.588a111.823 111.823 0 0 1-8.168 8.561c-2.372 2.235-4.32 3.872-5.711 4.912s-2.228 1.484-2.427 1.285c-.199-.2.251-1.03 1.26-2.431 1.008-1.402 2.578-3.373 4.566-5.888 1.988-2.514 4.397-5.57 6.985-9.185 2.588-3.616 5.357-7.79 7.928-12.6 1.523-2.912 3.034-6.039 4.16-9.32 1.127-3.28 1.87-6.713 1.703-10.219-.08-2.165-.497-4.323-1.417-6.187-.784-1.643-1.987-3.154-3.463-4.364-3.169-2.719-7.877-3.928-12.816-4.335a39.396 39.396 0 0 0-4.836-.031c-4.659.249-9.272 1.252-13.666 2.63-7.547 2.39-14.356 6.03-20.217 10.17-7.745 5.474-13.787 11.859-18.274 17.902a87.096 87.096 0 0 0-6.518 10.221c-1.723 3.154-3.043 5.983-4.084 8.326-1.042 2.342-1.808 4.2-2.391 5.45s-.984 1.895-1.228 1.835z" style="fill:#fff;fill-opacity:1;fill-rule:evenodd;stroke:none" transform="matrix(.98395 0 0 .97531 10945.467 -824.38)"/></svg>